<?xml version="1.0" encoding="utf-8" standalone="no"?>
<!DOCTYPE svg PUBLIC "-//W3C//DTD SVG 1.1//EN"
  "http://www.w3.org/Graphics/SVG/1.1/DTD/svg11.dtd">
<svg height="720pt" version="1.1" viewBox="0 0 576 720" width="576pt" xmlns="http://www.w3.org/2000/svg" xmlns:xlink="http://www.w3.org/1999/xlink">
 <metadata>
  <rdf:RDF xmlns:cc="http://creativecommons.org/ns#" xmlns:dc="http://purl.org/dc/elements/1.1/" xmlns:rdf="http://www.w3.org/1999/02/22-rdf-syntax-ns#">
   <cc:Work>
    <dc:type rdf:resource="http://purl.org/dc/dcmitype/StillImage"/>
    <dc:date>2021-05-04T10:58:06.583858</dc:date>
    <dc:format>image/svg+xml</dc:format>
    <dc:creator>
     <cc:Agent>
      <dc:title>Matplotlib v3.4.1, https://matplotlib.org/</dc:title>
     </cc:Agent>
    </dc:creator>
   </cc:Work>
  </rdf:RDF>
 </metadata>
 <defs>
  <style type="text/css">*{stroke-linecap:butt;stroke-linejoin:round;}</style>
 </defs>
 <g id="figure_1">
  <g id="patch_1">
   <path d="M 0 720 
L 576 720 
L 576 0 
L 0 0 
z
" style="fill:#ffffff;"/>
  </g>
  <g id="axes_1">
   <g id="patch_2">
    <path d="M 72 206.921739 
L 518.4 206.921739 
L 518.4 86.4 
L 72 86.4 
z
" style="fill:#ffffff;"/>
   </g>
   <g id="PolyCollection_1">
    <defs>
     <path d="M 72 -513.079458 
L 72 -513.078261 
L 76.509091 -513.078261 
L 81.018182 -513.078261 
L 85.527273 -513.078261 
L 90.036364 -513.078261 
L 94.545455 -513.078261 
L 99.054545 -513.078261 
L 103.563636 -513.078261 
L 108.072727 -513.078261 
L 112.581818 -513.078261 
L 117.090909 -513.078261 
L 121.6 -513.078261 
L 126.109091 -513.078261 
L 130.618182 -513.078261 
L 135.127273 -513.078261 
L 139.636364 -513.078261 
L 144.145455 -513.078261 
L 148.654545 -513.078261 
L 153.163636 -513.078261 
L 157.672727 -513.078261 
L 162.181818 -513.078261 
L 166.690909 -513.078261 
L 171.2 -513.078261 
L 175.709091 -513.078261 
L 180.218182 -513.078261 
L 184.727273 -513.078261 
L 189.236364 -513.078261 
L 193.745455 -513.078261 
L 198.254545 -513.078261 
L 202.763636 -513.078261 
L 207.272727 -513.078261 
L 211.781818 -513.078261 
L 216.290909 -513.078261 
L 220.8 -513.078261 
L 225.309091 -513.078261 
L 229.818182 -513.078261 
L 234.327273 -513.078261 
L 238.836364 -513.078261 
L 243.345455 -513.078261 
L 247.854545 -513.078261 
L 252.363636 -513.078261 
L 256.872727 -513.078261 
L 261.381818 -513.078261 
L 265.890909 -513.078261 
L 270.4 -513.078261 
L 274.909091 -513.078261 
L 279.418182 -513.078261 
L 283.927273 -513.078261 
L 288.436364 -513.078261 
L 292.945455 -513.078261 
L 297.454545 -513.078261 
L 301.963636 -513.078261 
L 306.472727 -513.078261 
L 310.981818 -513.078261 
L 315.490909 -513.078261 
L 320 -513.078261 
L 324.509091 -513.078261 
L 329.018182 -513.078261 
L 333.527273 -513.078261 
L 338.036364 -513.078261 
L 342.545455 -513.078261 
L 347.054545 -513.078261 
L 351.563636 -513.078261 
L 356.072727 -513.078261 
L 360.581818 -513.078261 
L 365.090909 -513.078261 
L 369.6 -513.078261 
L 374.109091 -513.078261 
L 378.618182 -513.078261 
L 383.127273 -513.078261 
L 387.636364 -513.078261 
L 392.145455 -513.078261 
L 396.654545 -513.078261 
L 401.163636 -513.078261 
L 405.672727 -513.078261 
L 410.181818 -513.078261 
L 414.690909 -513.078261 
L 419.2 -513.078261 
L 423.709091 -513.078261 
L 428.218182 -513.078261 
L 432.727273 -513.078261 
L 437.236364 -513.078261 
L 441.745455 -513.078261 
L 446.254545 -513.078261 
L 450.763636 -513.078261 
L 455.272727 -513.078261 
L 459.781818 -513.078261 
L 464.290909 -513.078261 
L 468.8 -513.078261 
L 473.309091 -513.078261 
L 477.818182 -513.078261 
L 482.327273 -513.078261 
L 486.836364 -513.078261 
L 491.345455 -513.078261 
L 495.854545 -513.078261 
L 500.363636 -513.078261 
L 504.872727 -513.078261 
L 509.381818 -513.078261 
L 513.890909 -513.078261 
L 518.4 -513.078261 
L 518.4 -513.078261 
L 518.4 -513.078261 
L 513.890909 -513.078261 
L 509.381818 -513.078261 
L 504.872727 -513.078261 
L 500.363636 -513.078261 
L 495.854545 -513.078261 
L 491.345455 -513.078261 
L 486.836364 -513.078261 
L 482.327273 -513.078261 
L 477.818182 -513.078261 
L 473.309091 -513.078261 
L 468.8 -513.078261 
L 464.290909 -513.078261 
L 459.781818 -513.078261 
L 455.272727 -513.078261 
L 450.763636 -513.078261 
L 446.254545 -513.078261 
L 441.745455 -513.078261 
L 437.236364 -513.078261 
L 432.727273 -513.078261 
L 428.218182 -513.078261 
L 423.709091 -513.078261 
L 419.2 -513.078261 
L 414.690909 -513.078261 
L 410.181818 -513.078261 
L 405.672727 -513.078261 
L 401.163636 -513.078261 
L 396.654545 -513.078261 
L 392.145455 -513.078261 
L 387.636364 -513.078261 
L 383.127273 -513.078261 
L 378.618182 -513.078261 
L 374.109091 -513.078261 
L 369.6 -513.078261 
L 365.090909 -513.078261 
L 360.581818 -513.078261 
L 356.072727 -513.078261 
L 351.563636 -513.078261 
L 347.054545 -513.078261 
L 342.545455 -513.078261 
L 338.036364 -513.078261 
L 333.527273 -513.078261 
L 329.018182 -513.078261 
L 324.509091 -513.078261 
L 320 -513.078261 
L 315.490909 -513.078263 
L 310.981818 -513.078267 
L 306.472727 -513.07828 
L 301.963636 -513.078317 
L 297.454545 -513.078423 
L 292.945455 -513.07871 
L 288.436364 -513.079458 
L 283.927273 -513.081324 
L 279.418182 -513.085796 
L 274.909091 -513.096068 
L 270.4 -513.118691 
L 265.890909 -513.166459 
L 261.381818 -513.263118 
L 256.872727 -513.450518 
L 252.363636 -513.798502 
L 247.854545 -514.417136 
L 243.345455 -515.469544 
L 238.836364 -517.18172 
L 234.327273 -519.843721 
L 229.818182 -523.79525 
L 225.309091 -529.389104 
L 220.8 -536.929356 
L 216.290909 -546.587801 
L 211.781818 -558.311408 
L 207.272727 -571.742491 
L 202.763636 -586.178392 
L 198.254545 -600.595004 
L 193.745455 -613.746481 
L 189.236364 -624.333846 
L 184.727273 -631.213511 
L 180.218182 -633.6 
L 175.709091 -631.213511 
L 171.2 -624.333846 
L 166.690909 -613.746481 
L 162.181818 -600.595004 
L 157.672727 -586.178392 
L 153.163636 -571.742491 
L 148.654545 -558.311408 
L 144.145455 -546.587801 
L 139.636364 -536.929356 
L 135.127273 -529.389104 
L 130.618182 -523.79525 
L 126.109091 -519.843721 
L 121.6 -517.18172 
L 117.090909 -515.469544 
L 112.581818 -514.417136 
L 108.072727 -513.798502 
L 103.563636 -513.450518 
L 99.054545 -513.263118 
L 94.545455 -513.166459 
L 90.036364 -513.118691 
L 85.527273 -513.096068 
L 81.018182 -513.085796 
L 76.509091 -513.081324 
L 72 -513.079458 
z
" id="me830ef1b11" style="stroke:#0000ff;stroke-opacity:0.4;"/>
    </defs>
    <g clip-path="url(#pead3b7d395)">
     <use style="fill:#0000ff;fill-opacity:0.4;stroke:#0000ff;stroke-opacity:0.4;" x="0" xlink:href="#me830ef1b11" y="720"/>
    </g>
   </g>
   <g id="matplotlib.axis_1">
    <g id="xtick_1">
     <g id="line2d_1">
      <path clip-path="url(#pead3b7d395)" d="M 180.218182 206.921739 
L 180.218182 86.4 
" style="fill:none;stroke:#b0b0b0;stroke-linecap:square;stroke-width:0.8;"/>
     </g>
     <g id="line2d_2">
      <defs>
       <path d="M 0 0 
L 0 3.5 
" id="mad3979798d" style="stroke:#000000;stroke-width:0.8;"/>
      </defs>
      <g>
       <use style="stroke:#000000;stroke-width:0.8;" x="180.218182" xlink:href="#mad3979798d" y="206.921739"/>
      </g>
     </g>
    </g>
    <g id="xtick_2">
     <g id="line2d_3">
      <path clip-path="url(#pead3b7d395)" d="M 292.945455 206.921739 
L 292.945455 86.4 
" style="fill:none;stroke:#b0b0b0;stroke-linecap:square;stroke-width:0.8;"/>
     </g>
     <g id="line2d_4">
      <g>
       <use style="stroke:#000000;stroke-width:0.8;" x="292.945455" xlink:href="#mad3979798d" y="206.921739"/>
      </g>
     </g>
    </g>
    <g id="xtick_3">
     <g id="line2d_5">
      <path clip-path="url(#pead3b7d395)" d="M 405.672727 206.921739 
L 405.672727 86.4 
" style="fill:none;stroke:#b0b0b0;stroke-linecap:square;stroke-width:0.8;"/>
     </g>
     <g id="line2d_6">
      <g>
       <use style="stroke:#000000;stroke-width:0.8;" x="405.672727" xlink:href="#mad3979798d" y="206.921739"/>
      </g>
     </g>
    </g>
    <g id="xtick_4">
     <g id="line2d_7">
      <path clip-path="url(#pead3b7d395)" d="M 518.4 206.921739 
L 518.4 86.4 
" style="fill:none;stroke:#b0b0b0;stroke-linecap:square;stroke-width:0.8;"/>
     </g>
     <g id="line2d_8">
      <g>
       <use style="stroke:#000000;stroke-width:0.8;" x="518.4" xlink:href="#mad3979798d" y="206.921739"/>
      </g>
     </g>
    </g>
   </g>
   <g id="matplotlib.axis_2">
    <g id="ytick_1">
     <g id="line2d_9">
      <path clip-path="url(#pead3b7d395)" d="M 72 206.921739 
L 518.4 206.921739 
" style="fill:none;stroke:#b0b0b0;stroke-linecap:square;stroke-width:0.8;"/>
     </g>
     <g id="line2d_10">
      <defs>
       <path d="M 0 0 
L -3.5 0 
" id="m1b28a685a1" style="stroke:#000000;stroke-width:0.8;"/>
      </defs>
      <g>
       <use style="stroke:#000000;stroke-width:0.8;" x="72" xlink:href="#m1b28a685a1" y="206.921739"/>
      </g>
     </g>
     <g id="text_1">
      <!-- 0.00 -->
      <g transform="translate(29.375 213.000489)scale(0.16 -0.16)">
       <defs>
        <path d="M 2034 4250 
Q 1547 4250 1301 3770 
Q 1056 3291 1056 2328 
Q 1056 1369 1301 889 
Q 1547 409 2034 409 
Q 2525 409 2770 889 
Q 3016 1369 3016 2328 
Q 3016 3291 2770 3770 
Q 2525 4250 2034 4250 
z
M 2034 4750 
Q 2819 4750 3233 4129 
Q 3647 3509 3647 2328 
Q 3647 1150 3233 529 
Q 2819 -91 2034 -91 
Q 1250 -91 836 529 
Q 422 1150 422 2328 
Q 422 3509 836 4129 
Q 1250 4750 2034 4750 
z
" id="DejaVuSans-30" transform="scale(0.015625)"/>
        <path d="M 684 794 
L 1344 794 
L 1344 0 
L 684 0 
L 684 794 
z
" id="DejaVuSans-2e" transform="scale(0.015625)"/>
       </defs>
       <use xlink:href="#DejaVuSans-30"/>
       <use x="63.623047" xlink:href="#DejaVuSans-2e"/>
       <use x="95.410156" xlink:href="#DejaVuSans-30"/>
       <use x="159.033203" xlink:href="#DejaVuSans-30"/>
      </g>
     </g>
    </g>
    <g id="ytick_2">
     <g id="line2d_11">
      <path clip-path="url(#pead3b7d395)" d="M 72 176.791304 
L 518.4 176.791304 
" style="fill:none;stroke:#b0b0b0;stroke-linecap:square;stroke-width:0.8;"/>
     </g>
     <g id="line2d_12">
      <g>
       <use style="stroke:#000000;stroke-width:0.8;" x="72" xlink:href="#m1b28a685a1" y="176.791304"/>
      </g>
     </g>
     <g id="text_2">
      <!-- 0.25 -->
      <g transform="translate(29.375 182.870054)scale(0.16 -0.16)">
       <defs>
        <path d="M 1228 531 
L 3431 531 
L 3431 0 
L 469 0 
L 469 531 
Q 828 903 1448 1529 
Q 2069 2156 2228 2338 
Q 2531 2678 2651 2914 
Q 2772 3150 2772 3378 
Q 2772 3750 2511 3984 
Q 2250 4219 1831 4219 
Q 1534 4219 1204 4116 
Q 875 4013 500 3803 
L 500 4441 
Q 881 4594 1212 4672 
Q 1544 4750 1819 4750 
Q 2544 4750 2975 4387 
Q 3406 4025 3406 3419 
Q 3406 3131 3298 2873 
Q 3191 2616 2906 2266 
Q 2828 2175 2409 1742 
Q 1991 1309 1228 531 
z
" id="DejaVuSans-32" transform="scale(0.015625)"/>
        <path d="M 691 4666 
L 3169 4666 
L 3169 4134 
L 1269 4134 
L 1269 2991 
Q 1406 3038 1543 3061 
Q 1681 3084 1819 3084 
Q 2600 3084 3056 2656 
Q 3513 2228 3513 1497 
Q 3513 744 3044 326 
Q 2575 -91 1722 -91 
Q 1428 -91 1123 -41 
Q 819 9 494 109 
L 494 744 
Q 775 591 1075 516 
Q 1375 441 1709 441 
Q 2250 441 2565 725 
Q 2881 1009 2881 1497 
Q 2881 1984 2565 2268 
Q 2250 2553 1709 2553 
Q 1456 2553 1204 2497 
Q 953 2441 691 2322 
L 691 4666 
z
" id="DejaVuSans-35" transform="scale(0.015625)"/>
       </defs>
       <use xlink:href="#DejaVuSans-30"/>
       <use x="63.623047" xlink:href="#DejaVuSans-2e"/>
       <use x="95.410156" xlink:href="#DejaVuSans-32"/>
       <use x="159.033203" xlink:href="#DejaVuSans-35"/>
      </g>
     </g>
    </g>
    <g id="ytick_3">
     <g id="line2d_13">
      <path clip-path="url(#pead3b7d395)" d="M 72 146.66087 
L 518.4 146.66087 
" style="fill:none;stroke:#b0b0b0;stroke-linecap:square;stroke-width:0.8;"/>
     </g>
     <g id="line2d_14">
      <g>
       <use style="stroke:#000000;stroke-width:0.8;" x="72" xlink:href="#m1b28a685a1" y="146.66087"/>
      </g>
     </g>
     <g id="text_3">
      <!-- 0.50 -->
      <g transform="translate(29.375 152.73962)scale(0.16 -0.16)">
       <use xlink:href="#DejaVuSans-30"/>
       <use x="63.623047" xlink:href="#DejaVuSans-2e"/>
       <use x="95.410156" xlink:href="#DejaVuSans-35"/>
       <use x="159.033203" xlink:href="#DejaVuSans-30"/>
      </g>
     </g>
    </g>
    <g id="ytick_4">
     <g id="line2d_15">
      <path clip-path="url(#pead3b7d395)" d="M 72 116.530435 
L 518.4 116.530435 
" style="fill:none;stroke:#b0b0b0;stroke-linecap:square;stroke-width:0.8;"/>
     </g>
     <g id="line2d_16">
      <g>
       <use style="stroke:#000000;stroke-width:0.8;" x="72" xlink:href="#m1b28a685a1" y="116.530435"/>
      </g>
     </g>
     <g id="text_4">
      <!-- 0.75 -->
      <g transform="translate(29.375 122.609185)scale(0.16 -0.16)">
       <defs>
        <path d="M 525 4666 
L 3525 4666 
L 3525 4397 
L 1831 0 
L 1172 0 
L 2766 4134 
L 525 4134 
L 525 4666 
z
" id="DejaVuSans-37" transform="scale(0.015625)"/>
       </defs>
       <use xlink:href="#DejaVuSans-30"/>
       <use x="63.623047" xlink:href="#DejaVuSans-2e"/>
       <use x="95.410156" xlink:href="#DejaVuSans-37"/>
       <use x="159.033203" xlink:href="#DejaVuSans-35"/>
      </g>
     </g>
    </g>
    <g id="ytick_5">
     <g id="line2d_17">
      <path clip-path="url(#pead3b7d395)" d="M 72 86.4 
L 518.4 86.4 
" style="fill:none;stroke:#b0b0b0;stroke-linecap:square;stroke-width:0.8;"/>
     </g>
     <g id="line2d_18">
      <g>
       <use style="stroke:#000000;stroke-width:0.8;" x="72" xlink:href="#m1b28a685a1" y="86.4"/>
      </g>
     </g>
     <g id="text_5">
      <!-- 1.00 -->
      <g transform="translate(29.375 92.47875)scale(0.16 -0.16)">
       <defs>
        <path d="M 794 531 
L 1825 531 
L 1825 4091 
L 703 3866 
L 703 4441 
L 1819 4666 
L 2450 4666 
L 2450 531 
L 3481 531 
L 3481 0 
L 794 0 
L 794 531 
z
" id="DejaVuSans-31" transform="scale(0.015625)"/>
       </defs>
       <use xlink:href="#DejaVuSans-31"/>
       <use x="63.623047" xlink:href="#DejaVuSans-2e"/>
       <use x="95.410156" xlink:href="#DejaVuSans-30"/>
       <use x="159.033203" xlink:href="#DejaVuSans-30"/>
      </g>
     </g>
    </g>
    <g id="text_6">
     <!-- Height -->
     <g transform="translate(22.0475 173.10712)rotate(-90)scale(0.16 -0.16)">
      <defs>
       <path d="M 628 4666 
L 1259 4666 
L 1259 2753 
L 3553 2753 
L 3553 4666 
L 4184 4666 
L 4184 0 
L 3553 0 
L 3553 2222 
L 1259 2222 
L 1259 0 
L 628 0 
L 628 4666 
z
" id="DejaVuSans-48" transform="scale(0.015625)"/>
       <path d="M 3597 1894 
L 3597 1613 
L 953 1613 
Q 991 1019 1311 708 
Q 1631 397 2203 397 
Q 2534 397 2845 478 
Q 3156 559 3463 722 
L 3463 178 
Q 3153 47 2828 -22 
Q 2503 -91 2169 -91 
Q 1331 -91 842 396 
Q 353 884 353 1716 
Q 353 2575 817 3079 
Q 1281 3584 2069 3584 
Q 2775 3584 3186 3129 
Q 3597 2675 3597 1894 
z
M 3022 2063 
Q 3016 2534 2758 2815 
Q 2500 3097 2075 3097 
Q 1594 3097 1305 2825 
Q 1016 2553 972 2059 
L 3022 2063 
z
" id="DejaVuSans-65" transform="scale(0.015625)"/>
       <path d="M 603 3500 
L 1178 3500 
L 1178 0 
L 603 0 
L 603 3500 
z
M 603 4863 
L 1178 4863 
L 1178 4134 
L 603 4134 
L 603 4863 
z
" id="DejaVuSans-69" transform="scale(0.015625)"/>
       <path d="M 2906 1791 
Q 2906 2416 2648 2759 
Q 2391 3103 1925 3103 
Q 1463 3103 1205 2759 
Q 947 2416 947 1791 
Q 947 1169 1205 825 
Q 1463 481 1925 481 
Q 2391 481 2648 825 
Q 2906 1169 2906 1791 
z
M 3481 434 
Q 3481 -459 3084 -895 
Q 2688 -1331 1869 -1331 
Q 1566 -1331 1297 -1286 
Q 1028 -1241 775 -1147 
L 775 -588 
Q 1028 -725 1275 -790 
Q 1522 -856 1778 -856 
Q 2344 -856 2625 -561 
Q 2906 -266 2906 331 
L 2906 616 
Q 2728 306 2450 153 
Q 2172 0 1784 0 
Q 1141 0 747 490 
Q 353 981 353 1791 
Q 353 2603 747 3093 
Q 1141 3584 1784 3584 
Q 2172 3584 2450 3431 
Q 2728 3278 2906 2969 
L 2906 3500 
L 3481 3500 
L 3481 434 
z
" id="DejaVuSans-67" transform="scale(0.015625)"/>
       <path d="M 3513 2113 
L 3513 0 
L 2938 0 
L 2938 2094 
Q 2938 2591 2744 2837 
Q 2550 3084 2163 3084 
Q 1697 3084 1428 2787 
Q 1159 2491 1159 1978 
L 1159 0 
L 581 0 
L 581 4863 
L 1159 4863 
L 1159 2956 
Q 1366 3272 1645 3428 
Q 1925 3584 2291 3584 
Q 2894 3584 3203 3211 
Q 3513 2838 3513 2113 
z
" id="DejaVuSans-68" transform="scale(0.015625)"/>
       <path d="M 1172 4494 
L 1172 3500 
L 2356 3500 
L 2356 3053 
L 1172 3053 
L 1172 1153 
Q 1172 725 1289 603 
Q 1406 481 1766 481 
L 2356 481 
L 2356 0 
L 1766 0 
Q 1100 0 847 248 
Q 594 497 594 1153 
L 594 3053 
L 172 3053 
L 172 3500 
L 594 3500 
L 594 4494 
L 1172 4494 
z
" id="DejaVuSans-74" transform="scale(0.015625)"/>
      </defs>
      <use xlink:href="#DejaVuSans-48"/>
      <use x="75.195312" xlink:href="#DejaVuSans-65"/>
      <use x="136.71875" xlink:href="#DejaVuSans-69"/>
      <use x="164.501953" xlink:href="#DejaVuSans-67"/>
      <use x="227.978516" xlink:href="#DejaVuSans-68"/>
      <use x="291.357422" xlink:href="#DejaVuSans-74"/>
     </g>
    </g>
   </g>
   <g id="line2d_19">
    <path clip-path="url(#pead3b7d395)" d="M 72 206.920542 
L 76.509091 206.918676 
L 81.018182 206.914204 
L 85.527273 206.903932 
L 90.036364 206.881309 
L 94.545455 206.833541 
L 99.054545 206.736882 
L 103.563636 206.549482 
L 108.072727 206.201498 
L 112.581818 205.582864 
L 117.090909 204.530456 
L 121.6 202.81828 
L 126.109091 200.156279 
L 130.618182 196.20475 
L 135.127273 190.610896 
L 139.636364 183.070644 
L 144.145455 173.412199 
L 148.654545 161.688592 
L 153.163636 148.257509 
L 157.672727 133.821608 
L 162.181818 119.404996 
L 166.690909 106.253519 
L 171.2 95.666154 
L 175.709091 88.786489 
L 180.218182 86.4 
L 184.727273 88.786489 
L 189.236364 95.666154 
L 193.745455 106.253519 
L 198.254545 119.404996 
L 202.763636 133.821608 
L 207.272727 148.257509 
L 211.781818 161.688592 
L 216.290909 173.412199 
L 220.8 183.070644 
L 225.309091 190.610896 
L 229.818182 196.20475 
L 234.327273 200.156279 
L 238.836364 202.81828 
L 243.345455 204.530456 
L 247.854545 205.582864 
L 252.363636 206.201498 
L 256.872727 206.549482 
L 261.381818 206.736882 
L 265.890909 206.833541 
L 270.4 206.881309 
L 274.909091 206.903932 
L 279.418182 206.914204 
L 283.927273 206.918676 
L 288.436364 206.920542 
L 292.945455 206.92129 
L 297.454545 206.921577 
L 301.963636 206.921683 
L 306.472727 206.92172 
L 310.981818 206.921733 
L 315.490909 206.921737 
L 320 206.921739 
L 324.509091 206.921739 
L 329.018182 206.921739 
L 333.527273 206.921739 
L 338.036364 206.921739 
L 342.545455 206.921739 
L 347.054545 206.921739 
L 351.563636 206.921739 
L 356.072727 206.921739 
L 360.581818 206.921739 
L 365.090909 206.921739 
L 369.6 206.921739 
L 374.109091 206.921739 
L 378.618182 206.921739 
L 383.127273 206.921739 
L 387.636364 206.921739 
L 392.145455 206.921739 
L 396.654545 206.921739 
L 401.163636 206.921739 
L 405.672727 206.921739 
L 410.181818 206.921739 
L 414.690909 206.921739 
L 419.2 206.921739 
L 423.709091 206.921739 
L 428.218182 206.921739 
L 432.727273 206.921739 
L 437.236364 206.921739 
L 441.745455 206.921739 
L 446.254545 206.921739 
L 450.763636 206.921739 
L 455.272727 206.921739 
L 459.781818 206.921739 
L 464.290909 206.921739 
L 468.8 206.921739 
L 473.309091 206.921739 
L 477.818182 206.921739 
L 482.327273 206.921739 
L 486.836364 206.921739 
L 491.345455 206.921739 
L 495.854545 206.921739 
L 500.363636 206.921739 
L 504.872727 206.921739 
L 509.381818 206.921739 
L 513.890909 206.921739 
L 518.4 206.921739 
" style="fill:none;stroke:#0000ff;stroke-linecap:square;stroke-width:1.5;"/>
   </g>
   <g id="patch_3">
    <path d="M 72 206.921739 
L 72 86.4 
" style="fill:none;stroke:#000000;stroke-linecap:square;stroke-linejoin:miter;stroke-width:0.8;"/>
   </g>
   <g id="patch_4">
    <path d="M 518.4 206.921739 
L 518.4 86.4 
" style="fill:none;stroke:#000000;stroke-linecap:square;stroke-linejoin:miter;stroke-width:0.8;"/>
   </g>
   <g id="patch_5">
    <path d="M 72 206.921739 
L 518.4 206.921739 
" style="fill:none;stroke:#000000;stroke-linecap:square;stroke-linejoin:miter;stroke-width:0.8;"/>
   </g>
   <g id="patch_6">
    <path d="M 72 86.4 
L 518.4 86.4 
" style="fill:none;stroke:#000000;stroke-linecap:square;stroke-linejoin:miter;stroke-width:0.8;"/>
   </g>
   <g id="text_7">
    <!-- Time step   0 -->
    <g transform="translate(232.6335 80.4)scale(0.192 -0.192)">
     <defs>
      <path d="M -19 4666 
L 3928 4666 
L 3928 4134 
L 2272 4134 
L 2272 0 
L 1638 0 
L 1638 4134 
L -19 4134 
L -19 4666 
z
" id="DejaVuSans-54" transform="scale(0.015625)"/>
      <path d="M 3328 2828 
Q 3544 3216 3844 3400 
Q 4144 3584 4550 3584 
Q 5097 3584 5394 3201 
Q 5691 2819 5691 2113 
L 5691 0 
L 5113 0 
L 5113 2094 
Q 5113 2597 4934 2840 
Q 4756 3084 4391 3084 
Q 3944 3084 3684 2787 
Q 3425 2491 3425 1978 
L 3425 0 
L 2847 0 
L 2847 2094 
Q 2847 2600 2669 2842 
Q 2491 3084 2119 3084 
Q 1678 3084 1418 2786 
Q 1159 2488 1159 1978 
L 1159 0 
L 581 0 
L 581 3500 
L 1159 3500 
L 1159 2956 
Q 1356 3278 1631 3431 
Q 1906 3584 2284 3584 
Q 2666 3584 2933 3390 
Q 3200 3197 3328 2828 
z
" id="DejaVuSans-6d" transform="scale(0.015625)"/>
      <path id="DejaVuSans-20" transform="scale(0.015625)"/>
      <path d="M 2834 3397 
L 2834 2853 
Q 2591 2978 2328 3040 
Q 2066 3103 1784 3103 
Q 1356 3103 1142 2972 
Q 928 2841 928 2578 
Q 928 2378 1081 2264 
Q 1234 2150 1697 2047 
L 1894 2003 
Q 2506 1872 2764 1633 
Q 3022 1394 3022 966 
Q 3022 478 2636 193 
Q 2250 -91 1575 -91 
Q 1294 -91 989 -36 
Q 684 19 347 128 
L 347 722 
Q 666 556 975 473 
Q 1284 391 1588 391 
Q 1994 391 2212 530 
Q 2431 669 2431 922 
Q 2431 1156 2273 1281 
Q 2116 1406 1581 1522 
L 1381 1569 
Q 847 1681 609 1914 
Q 372 2147 372 2553 
Q 372 3047 722 3315 
Q 1072 3584 1716 3584 
Q 2034 3584 2315 3537 
Q 2597 3491 2834 3397 
z
" id="DejaVuSans-73" transform="scale(0.015625)"/>
      <path d="M 1159 525 
L 1159 -1331 
L 581 -1331 
L 581 3500 
L 1159 3500 
L 1159 2969 
Q 1341 3281 1617 3432 
Q 1894 3584 2278 3584 
Q 2916 3584 3314 3078 
Q 3713 2572 3713 1747 
Q 3713 922 3314 415 
Q 2916 -91 2278 -91 
Q 1894 -91 1617 61 
Q 1341 213 1159 525 
z
M 3116 1747 
Q 3116 2381 2855 2742 
Q 2594 3103 2138 3103 
Q 1681 3103 1420 2742 
Q 1159 2381 1159 1747 
Q 1159 1113 1420 752 
Q 1681 391 2138 391 
Q 2594 391 2855 752 
Q 3116 1113 3116 1747 
z
" id="DejaVuSans-70" transform="scale(0.015625)"/>
     </defs>
     <use xlink:href="#DejaVuSans-54"/>
     <use x="57.958984" xlink:href="#DejaVuSans-69"/>
     <use x="85.742188" xlink:href="#DejaVuSans-6d"/>
     <use x="183.154297" xlink:href="#DejaVuSans-65"/>
     <use x="244.677734" xlink:href="#DejaVuSans-20"/>
     <use x="276.464844" xlink:href="#DejaVuSans-73"/>
     <use x="328.564453" xlink:href="#DejaVuSans-74"/>
     <use x="367.773438" xlink:href="#DejaVuSans-65"/>
     <use x="429.296875" xlink:href="#DejaVuSans-70"/>
     <use x="492.773438" xlink:href="#DejaVuSans-20"/>
     <use x="524.560547" xlink:href="#DejaVuSans-20"/>
     <use x="556.347656" xlink:href="#DejaVuSans-20"/>
     <use x="588.134766" xlink:href="#DejaVuSans-30"/>
    </g>
   </g>
  </g>
  <g id="axes_2">
   <g id="patch_7">
    <path d="M 72 351.547826 
L 518.4 351.547826 
L 518.4 231.026087 
L 72 231.026087 
z
" style="fill:#ffffff;"/>
   </g>
   <g id="PolyCollection_2">
    <defs>
     <path d="M 72 -368.511578 
L 72 -368.452174 
L 76.509091 -368.452174 
L 81.018182 -368.452174 
L 85.527273 -368.452174 
L 90.036364 -368.452174 
L 94.545455 -368.452174 
L 99.054545 -368.452174 
L 103.563636 -368.452174 
L 108.072727 -368.452174 
L 112.581818 -368.452174 
L 117.090909 -368.452174 
L 121.6 -368.452174 
L 126.109091 -368.452174 
L 130.618182 -368.452174 
L 135.127273 -368.452174 
L 139.636364 -368.452174 
L 144.145455 -368.452174 
L 148.654545 -368.452174 
L 153.163636 -368.452174 
L 157.672727 -368.452174 
L 162.181818 -368.452174 
L 166.690909 -368.452174 
L 171.2 -368.452174 
L 175.709091 -368.452174 
L 180.218182 -368.452174 
L 184.727273 -368.452174 
L 189.236364 -368.452174 
L 193.745455 -368.452174 
L 198.254545 -368.452174 
L 202.763636 -368.452174 
L 207.272727 -368.452174 
L 211.781818 -368.452174 
L 216.290909 -368.452174 
L 220.8 -368.452174 
L 225.309091 -368.452174 
L 229.818182 -368.452174 
L 234.327273 -368.452174 
L 238.836364 -368.452174 
L 243.345455 -368.452174 
L 247.854545 -368.452174 
L 252.363636 -368.452174 
L 256.872727 -368.452174 
L 261.381818 -368.452174 
L 265.890909 -368.452174 
L 270.4 -368.452174 
L 274.909091 -368.452174 
L 279.418182 -368.452174 
L 283.927273 -368.452174 
L 288.436364 -368.452174 
L 292.945455 -368.452174 
L 297.454545 -368.452174 
L 301.963636 -368.452174 
L 306.472727 -368.452174 
L 310.981818 -368.452174 
L 315.490909 -368.452174 
L 320 -368.452174 
L 324.509091 -368.452174 
L 329.018182 -368.452174 
L 333.527273 -368.452174 
L 338.036364 -368.452174 
L 342.545455 -368.452174 
L 347.054545 -368.452174 
L 351.563636 -368.452174 
L 356.072727 -368.452174 
L 360.581818 -368.452174 
L 365.090909 -368.452174 
L 369.6 -368.452174 
L 374.109091 -368.452174 
L 378.618182 -368.452174 
L 383.127273 -368.452174 
L 387.636364 -368.452174 
L 392.145455 -368.452174 
L 396.654545 -368.452174 
L 401.163636 -368.452174 
L 405.672727 -368.452174 
L 410.181818 -368.452174 
L 414.690909 -368.452174 
L 419.2 -368.452174 
L 423.709091 -368.452174 
L 428.218182 -368.452174 
L 432.727273 -368.452174 
L 437.236364 -368.452174 
L 441.745455 -368.452174 
L 446.254545 -368.452174 
L 450.763636 -368.452174 
L 455.272727 -368.452174 
L 459.781818 -368.452174 
L 464.290909 -368.452174 
L 468.8 -368.452174 
L 473.309091 -368.452174 
L 477.818182 -368.452174 
L 482.327273 -368.452174 
L 486.836364 -368.452174 
L 491.345455 -368.452174 
L 495.854545 -368.452174 
L 500.363636 -368.452174 
L 504.872727 -368.452174 
L 509.381818 -368.452174 
L 513.890909 -368.452174 
L 518.4 -368.452174 
L 518.4 -368.480937 
L 518.4 -368.480937 
L 513.890909 -368.465588 
L 509.381818 -368.458208 
L 504.872727 -368.454804 
L 500.363636 -368.453105 
L 495.854545 -368.452562 
L 491.345455 -368.452269 
L 486.836364 -368.452212 
L 482.327273 -368.45218 
L 477.818182 -368.452176 
L 473.309091 -368.452174 
L 468.8 -368.452174 
L 464.290909 -368.452174 
L 459.781818 -368.452174 
L 455.272727 -368.452174 
L 450.763636 -368.452174 
L 446.254545 -368.452174 
L 441.745455 -368.452174 
L 437.236364 -368.452174 
L 432.727273 -368.452174 
L 428.218182 -368.452174 
L 423.709091 -368.452174 
L 419.2 -368.452174 
L 414.690909 -368.452174 
L 410.181818 -368.452174 
L 405.672727 -368.452174 
L 401.163636 -368.452174 
L 396.654545 -368.452174 
L 392.145455 -368.452174 
L 387.636364 -368.452174 
L 383.127273 -368.452174 
L 378.618182 -368.452174 
L 374.109091 -368.452174 
L 369.6 -368.452174 
L 365.090909 -368.452174 
L 360.581818 -368.452174 
L 356.072727 -368.452174 
L 351.563636 -368.452174 
L 347.054545 -368.452174 
L 342.545455 -368.452175 
L 338.036364 -368.452177 
L 333.527273 -368.452183 
L 329.018182 -368.452199 
L 324.509091 -368.452242 
L 320 -368.452352 
L 315.490909 -368.452626 
L 310.981818 -368.453283 
L 306.472727 -368.454806 
L 301.963636 -368.458212 
L 297.454545 -368.465564 
L 292.945455 -368.480869 
L 288.436364 -368.51159 
L 283.927273 -368.571013 
L 279.418182 -368.681734 
L 274.909091 -368.880365 
L 270.4 -369.223296 
L 265.890909 -369.792763 
L 261.381818 -370.701744 
L 256.872727 -372.095262 
L 252.363636 -374.144866 
L 247.854545 -377.032699 
L 243.345455 -380.922382 
L 238.836364 -385.91661 
L 234.327273 -392.006673 
L 229.818182 -399.026817 
L 225.309091 -406.633777 
L 220.8 -414.332378 
L 216.290909 -421.556848 
L 211.781818 -427.791635 
L 207.272727 -432.690763 
L 202.763636 -436.148127 
L 198.254545 -438.292664 
L 193.745455 -439.418364 
L 189.236364 -439.883233 
L 184.727273 -440.012998 
L 180.218182 -440.030095 
L 175.709091 -440.012998 
L 171.2 -439.883233 
L 166.690909 -439.418364 
L 162.181818 -438.292664 
L 157.672727 -436.148127 
L 153.163636 -432.690763 
L 148.654545 -427.791635 
L 144.145455 -421.556848 
L 139.636364 -414.332378 
L 135.127273 -406.633777 
L 130.618182 -399.026817 
L 126.109091 -392.006673 
L 121.6 -385.91661 
L 117.090909 -380.922382 
L 112.581818 -377.032697 
L 108.072727 -374.144866 
L 103.563636 -372.095254 
L 99.054545 -370.70174 
L 94.545455 -369.7927 
L 90.036364 -369.223273 
L 85.527273 -368.88018 
L 81.018182 -368.681667 
L 76.509091 -368.570978 
L 72 -368.511578 
z
" id="m21d679a3b8" style="stroke:#0000ff;stroke-opacity:0.4;"/>
    </defs>
    <g clip-path="url(#p0d32746d4c)">
     <use style="fill:#0000ff;fill-opacity:0.4;stroke:#0000ff;stroke-opacity:0.4;" x="0" xlink:href="#m21d679a3b8" y="720"/>
    </g>
   </g>
   <g id="matplotlib.axis_3">
    <g id="xtick_5">
     <g id="line2d_20">
      <path clip-path="url(#p0d32746d4c)" d="M 180.218182 351.547826 
L 180.218182 231.026087 
" style="fill:none;stroke:#b0b0b0;stroke-linecap:square;stroke-width:0.8;"/>
     </g>
     <g id="line2d_21">
      <g>
       <use style="stroke:#000000;stroke-width:0.8;" x="180.218182" xlink:href="#mad3979798d" y="351.547826"/>
      </g>
     </g>
    </g>
    <g id="xtick_6">
     <g id="line2d_22">
      <path clip-path="url(#p0d32746d4c)" d="M 292.945455 351.547826 
L 292.945455 231.026087 
" style="fill:none;stroke:#b0b0b0;stroke-linecap:square;stroke-width:0.8;"/>
     </g>
     <g id="line2d_23">
      <g>
       <use style="stroke:#000000;stroke-width:0.8;" x="292.945455" xlink:href="#mad3979798d" y="351.547826"/>
      </g>
     </g>
    </g>
    <g id="xtick_7">
     <g id="line2d_24">
      <path clip-path="url(#p0d32746d4c)" d="M 405.672727 351.547826 
L 405.672727 231.026087 
" style="fill:none;stroke:#b0b0b0;stroke-linecap:square;stroke-width:0.8;"/>
     </g>
     <g id="line2d_25">
      <g>
       <use style="stroke:#000000;stroke-width:0.8;" x="405.672727" xlink:href="#mad3979798d" y="351.547826"/>
      </g>
     </g>
    </g>
    <g id="xtick_8">
     <g id="line2d_26">
      <path clip-path="url(#p0d32746d4c)" d="M 518.4 351.547826 
L 518.4 231.026087 
" style="fill:none;stroke:#b0b0b0;stroke-linecap:square;stroke-width:0.8;"/>
     </g>
     <g id="line2d_27">
      <g>
       <use style="stroke:#000000;stroke-width:0.8;" x="518.4" xlink:href="#mad3979798d" y="351.547826"/>
      </g>
     </g>
    </g>
   </g>
   <g id="matplotlib.axis_4">
    <g id="ytick_6">
     <g id="line2d_28">
      <path clip-path="url(#p0d32746d4c)" d="M 72 351.547826 
L 518.4 351.547826 
" style="fill:none;stroke:#b0b0b0;stroke-linecap:square;stroke-width:0.8;"/>
     </g>
     <g id="line2d_29">
      <g>
       <use style="stroke:#000000;stroke-width:0.8;" x="72" xlink:href="#m1b28a685a1" y="351.547826"/>
      </g>
     </g>
     <g id="text_8">
      <!-- 0.00 -->
      <g transform="translate(29.375 357.626576)scale(0.16 -0.16)">
       <use xlink:href="#DejaVuSans-30"/>
       <use x="63.623047" xlink:href="#DejaVuSans-2e"/>
       <use x="95.410156" xlink:href="#DejaVuSans-30"/>
       <use x="159.033203" xlink:href="#DejaVuSans-30"/>
      </g>
     </g>
    </g>
    <g id="ytick_7">
     <g id="line2d_30">
      <path clip-path="url(#p0d32746d4c)" d="M 72 321.417391 
L 518.4 321.417391 
" style="fill:none;stroke:#b0b0b0;stroke-linecap:square;stroke-width:0.8;"/>
     </g>
     <g id="line2d_31">
      <g>
       <use style="stroke:#000000;stroke-width:0.8;" x="72" xlink:href="#m1b28a685a1" y="321.417391"/>
      </g>
     </g>
     <g id="text_9">
      <!-- 0.25 -->
      <g transform="translate(29.375 327.496141)scale(0.16 -0.16)">
       <use xlink:href="#DejaVuSans-30"/>
       <use x="63.623047" xlink:href="#DejaVuSans-2e"/>
       <use x="95.410156" xlink:href="#DejaVuSans-32"/>
       <use x="159.033203" xlink:href="#DejaVuSans-35"/>
      </g>
     </g>
    </g>
    <g id="ytick_8">
     <g id="line2d_32">
      <path clip-path="url(#p0d32746d4c)" d="M 72 291.286957 
L 518.4 291.286957 
" style="fill:none;stroke:#b0b0b0;stroke-linecap:square;stroke-width:0.8;"/>
     </g>
     <g id="line2d_33">
      <g>
       <use style="stroke:#000000;stroke-width:0.8;" x="72" xlink:href="#m1b28a685a1" y="291.286957"/>
      </g>
     </g>
     <g id="text_10">
      <!-- 0.50 -->
      <g transform="translate(29.375 297.365707)scale(0.16 -0.16)">
       <use xlink:href="#DejaVuSans-30"/>
       <use x="63.623047" xlink:href="#DejaVuSans-2e"/>
       <use x="95.410156" xlink:href="#DejaVuSans-35"/>
       <use x="159.033203" xlink:href="#DejaVuSans-30"/>
      </g>
     </g>
    </g>
    <g id="ytick_9">
     <g id="line2d_34">
      <path clip-path="url(#p0d32746d4c)" d="M 72 261.156522 
L 518.4 261.156522 
" style="fill:none;stroke:#b0b0b0;stroke-linecap:square;stroke-width:0.8;"/>
     </g>
     <g id="line2d_35">
      <g>
       <use style="stroke:#000000;stroke-width:0.8;" x="72" xlink:href="#m1b28a685a1" y="261.156522"/>
      </g>
     </g>
     <g id="text_11">
      <!-- 0.75 -->
      <g transform="translate(29.375 267.235272)scale(0.16 -0.16)">
       <use xlink:href="#DejaVuSans-30"/>
       <use x="63.623047" xlink:href="#DejaVuSans-2e"/>
       <use x="95.410156" xlink:href="#DejaVuSans-37"/>
       <use x="159.033203" xlink:href="#DejaVuSans-35"/>
      </g>
     </g>
    </g>
    <g id="ytick_10">
     <g id="line2d_36">
      <path clip-path="url(#p0d32746d4c)" d="M 72 231.026087 
L 518.4 231.026087 
" style="fill:none;stroke:#b0b0b0;stroke-linecap:square;stroke-width:0.8;"/>
     </g>
     <g id="line2d_37">
      <g>
       <use style="stroke:#000000;stroke-width:0.8;" x="72" xlink:href="#m1b28a685a1" y="231.026087"/>
      </g>
     </g>
     <g id="text_12">
      <!-- 1.00 -->
      <g transform="translate(29.375 237.104837)scale(0.16 -0.16)">
       <use xlink:href="#DejaVuSans-31"/>
       <use x="63.623047" xlink:href="#DejaVuSans-2e"/>
       <use x="95.410156" xlink:href="#DejaVuSans-30"/>
       <use x="159.033203" xlink:href="#DejaVuSans-30"/>
      </g>
     </g>
    </g>
    <g id="text_13">
     <!-- Height -->
     <g transform="translate(22.0475 317.733207)rotate(-90)scale(0.16 -0.16)">
      <use xlink:href="#DejaVuSans-48"/>
      <use x="75.195312" xlink:href="#DejaVuSans-65"/>
      <use x="136.71875" xlink:href="#DejaVuSans-69"/>
      <use x="164.501953" xlink:href="#DejaVuSans-67"/>
      <use x="227.978516" xlink:href="#DejaVuSans-68"/>
      <use x="291.357422" xlink:href="#DejaVuSans-74"/>
     </g>
    </g>
   </g>
   <g id="line2d_38">
    <path clip-path="url(#p0d32746d4c)" d="M 72 351.488422 
L 76.509091 351.429022 
L 81.018182 351.318333 
L 85.527273 351.11982 
L 90.036364 350.776727 
L 94.545455 350.2073 
L 99.054545 349.29826 
L 103.563636 347.904746 
L 108.072727 345.855134 
L 112.581818 342.967303 
L 117.090909 339.077618 
L 121.6 334.08339 
L 126.109091 327.993327 
L 130.618182 320.973183 
L 135.127273 313.366223 
L 139.636364 305.667622 
L 144.145455 298.443152 
L 148.654545 292.208365 
L 153.163636 287.309237 
L 157.672727 283.851873 
L 162.181818 281.707336 
L 166.690909 280.581636 
L 171.2 280.116767 
L 175.709091 279.987002 
L 180.218182 279.969905 
L 184.727273 279.987002 
L 189.236364 280.116767 
L 193.745455 280.581636 
L 198.254545 281.707336 
L 202.763636 283.851873 
L 207.272727 287.309237 
L 211.781818 292.208365 
L 216.290909 298.443152 
L 220.8 305.667622 
L 225.309091 313.366223 
L 229.818182 320.973183 
L 234.327273 327.993327 
L 238.836364 334.08339 
L 243.345455 339.077618 
L 247.854545 342.967301 
L 252.363636 345.855134 
L 256.872727 347.904738 
L 261.381818 349.298256 
L 265.890909 350.207237 
L 270.4 350.776704 
L 274.909091 351.119635 
L 279.418182 351.318266 
L 283.927273 351.428987 
L 288.436364 351.48841 
L 292.945455 351.519131 
L 297.454545 351.534436 
L 301.963636 351.541788 
L 306.472727 351.545194 
L 310.981818 351.546717 
L 315.490909 351.547374 
L 320 351.547648 
L 324.509091 351.547758 
L 329.018182 351.547801 
L 333.527273 351.547817 
L 338.036364 351.547823 
L 342.545455 351.547825 
L 347.054545 351.547826 
L 351.563636 351.547826 
L 356.072727 351.547826 
L 360.581818 351.547826 
L 365.090909 351.547826 
L 369.6 351.547826 
L 374.109091 351.547826 
L 378.618182 351.547826 
L 383.127273 351.547826 
L 387.636364 351.547826 
L 392.145455 351.547826 
L 396.654545 351.547826 
L 401.163636 351.547826 
L 405.672727 351.547826 
L 410.181818 351.547826 
L 414.690909 351.547826 
L 419.2 351.547826 
L 423.709091 351.547826 
L 428.218182 351.547826 
L 432.727273 351.547826 
L 437.236364 351.547826 
L 441.745455 351.547826 
L 446.254545 351.547826 
L 450.763636 351.547826 
L 455.272727 351.547826 
L 459.781818 351.547826 
L 464.290909 351.547826 
L 468.8 351.547826 
L 473.309091 351.547826 
L 477.818182 351.547824 
L 482.327273 351.54782 
L 486.836364 351.547788 
L 491.345455 351.547731 
L 495.854545 351.547438 
L 500.363636 351.546895 
L 504.872727 351.545196 
L 509.381818 351.541792 
L 513.890909 351.534412 
L 518.4 351.519063 
" style="fill:none;stroke:#0000ff;stroke-linecap:square;stroke-width:1.5;"/>
   </g>
   <g id="patch_8">
    <path d="M 72 351.547826 
L 72 231.026087 
" style="fill:none;stroke:#000000;stroke-linecap:square;stroke-linejoin:miter;stroke-width:0.8;"/>
   </g>
   <g id="patch_9">
    <path d="M 518.4 351.547826 
L 518.4 231.026087 
" style="fill:none;stroke:#000000;stroke-linecap:square;stroke-linejoin:miter;stroke-width:0.8;"/>
   </g>
   <g id="patch_10">
    <path d="M 72 351.547826 
L 518.4 351.547826 
" style="fill:none;stroke:#000000;stroke-linecap:square;stroke-linejoin:miter;stroke-width:0.8;"/>
   </g>
   <g id="patch_11">
    <path d="M 72 231.026087 
L 518.4 231.026087 
" style="fill:none;stroke:#000000;stroke-linecap:square;stroke-linejoin:miter;stroke-width:0.8;"/>
   </g>
   <g id="text_14">
    <!-- Time step  25 -->
    <g transform="translate(229.5765 225.026087)scale(0.192 -0.192)">
     <use xlink:href="#DejaVuSans-54"/>
     <use x="57.958984" xlink:href="#DejaVuSans-69"/>
     <use x="85.742188" xlink:href="#DejaVuSans-6d"/>
     <use x="183.154297" xlink:href="#DejaVuSans-65"/>
     <use x="244.677734" xlink:href="#DejaVuSans-20"/>
     <use x="276.464844" xlink:href="#DejaVuSans-73"/>
     <use x="328.564453" xlink:href="#DejaVuSans-74"/>
     <use x="367.773438" xlink:href="#DejaVuSans-65"/>
     <use x="429.296875" xlink:href="#DejaVuSans-70"/>
     <use x="492.773438" xlink:href="#DejaVuSans-20"/>
     <use x="524.560547" xlink:href="#DejaVuSans-20"/>
     <use x="556.347656" xlink:href="#DejaVuSans-32"/>
     <use x="619.970703" xlink:href="#DejaVuSans-35"/>
    </g>
   </g>
  </g>
  <g id="axes_3">
   <g id="patch_12">
    <path d="M 72 496.173913 
L 518.4 496.173913 
L 518.4 375.652174 
L 72 375.652174 
z
" style="fill:#ffffff;"/>
   </g>
   <g id="PolyCollection_3">
    <defs>
     <path d="M 72 -225.240592 
L 72 -223.826087 
L 76.509091 -223.826087 
L 81.018182 -223.826087 
L 85.527273 -223.826087 
L 90.036364 -223.826087 
L 94.545455 -223.826087 
L 99.054545 -223.826087 
L 103.563636 -223.826087 
L 108.072727 -223.826087 
L 112.581818 -223.826087 
L 117.090909 -223.826087 
L 121.6 -223.826087 
L 126.109091 -223.826087 
L 130.618182 -223.826087 
L 135.127273 -223.826087 
L 139.636364 -223.826087 
L 144.145455 -223.826087 
L 148.654545 -223.826087 
L 153.163636 -223.826087 
L 157.672727 -223.826087 
L 162.181818 -223.826087 
L 166.690909 -223.826087 
L 171.2 -223.826087 
L 175.709091 -223.826087 
L 180.218182 -223.826087 
L 184.727273 -223.826087 
L 189.236364 -223.826087 
L 193.745455 -223.826087 
L 198.254545 -223.826087 
L 202.763636 -223.826087 
L 207.272727 -223.826087 
L 211.781818 -223.826087 
L 216.290909 -223.826087 
L 220.8 -223.826087 
L 225.309091 -223.826087 
L 229.818182 -223.826087 
L 234.327273 -223.826087 
L 238.836364 -223.826087 
L 243.345455 -223.826087 
L 247.854545 -223.826087 
L 252.363636 -223.826087 
L 256.872727 -223.826087 
L 261.381818 -223.826087 
L 265.890909 -223.826087 
L 270.4 -223.826087 
L 274.909091 -223.826087 
L 279.418182 -223.826087 
L 283.927273 -223.826087 
L 288.436364 -223.826087 
L 292.945455 -223.826087 
L 297.454545 -223.826087 
L 301.963636 -223.826087 
L 306.472727 -223.826087 
L 310.981818 -223.826087 
L 315.490909 -223.826087 
L 320 -223.826087 
L 324.509091 -223.826087 
L 329.018182 -223.826087 
L 333.527273 -223.826087 
L 338.036364 -223.826087 
L 342.545455 -223.826087 
L 347.054545 -223.826087 
L 351.563636 -223.826087 
L 356.072727 -223.826087 
L 360.581818 -223.826087 
L 365.090909 -223.826087 
L 369.6 -223.826087 
L 374.109091 -223.826087 
L 378.618182 -223.826087 
L 383.127273 -223.826087 
L 387.636364 -223.826087 
L 392.145455 -223.826087 
L 396.654545 -223.826087 
L 401.163636 -223.826087 
L 405.672727 -223.826087 
L 410.181818 -223.826087 
L 414.690909 -223.826087 
L 419.2 -223.826087 
L 423.709091 -223.826087 
L 428.218182 -223.826087 
L 432.727273 -223.826087 
L 437.236364 -223.826087 
L 441.745455 -223.826087 
L 446.254545 -223.826087 
L 450.763636 -223.826087 
L 455.272727 -223.826087 
L 459.781818 -223.826087 
L 464.290909 -223.826087 
L 468.8 -223.826087 
L 473.309091 -223.826087 
L 477.818182 -223.826087 
L 482.327273 -223.826087 
L 486.836364 -223.826087 
L 491.345455 -223.826087 
L 495.854545 -223.826087 
L 500.363636 -223.826087 
L 504.872727 -223.826087 
L 509.381818 -223.826087 
L 513.890909 -223.826087 
L 518.4 -223.826087 
L 518.4 -224.65516 
L 518.4 -224.65516 
L 513.890909 -224.296794 
L 509.381818 -224.084938 
L 504.872727 -223.964131 
L 500.363636 -223.897547 
L 495.854545 -223.861892 
L 491.345455 -223.843495 
L 486.836364 -223.834294 
L 482.327273 -223.829699 
L 477.818182 -223.827703 
L 473.309091 -223.826695 
L 468.8 -223.826349 
L 464.290909 -223.826168 
L 459.781818 -223.826121 
L 455.272727 -223.826095 
L 450.763636 -223.82609 
L 446.254545 -223.826088 
L 441.745455 -223.826087 
L 437.236364 -223.826087 
L 432.727273 -223.826087 
L 428.218182 -223.826087 
L 423.709091 -223.826087 
L 419.2 -223.826087 
L 414.690909 -223.826087 
L 410.181818 -223.826087 
L 405.672727 -223.826087 
L 401.163636 -223.826087 
L 396.654545 -223.826087 
L 392.145455 -223.826087 
L 387.636364 -223.826087 
L 383.127273 -223.826087 
L 378.618182 -223.826087 
L 374.109091 -223.826087 
L 369.6 -223.826088 
L 365.090909 -223.82609 
L 360.581818 -223.826094 
L 356.072727 -223.826106 
L 351.563636 -223.826136 
L 347.054545 -223.82621 
L 342.545455 -223.826388 
L 338.036364 -223.826806 
L 333.527273 -223.827754 
L 329.018182 -223.82984 
L 324.509091 -223.834288 
L 320 -223.843477 
L 315.490909 -223.861861 
L 310.981818 -223.897462 
L 306.472727 -223.964168 
L 301.963636 -224.08504 
L 297.454545 -224.296758 
L 292.945455 -224.655062 
L 288.436364 -225.24063 
L 283.927273 -226.164153 
L 279.418182 -227.568515 
L 274.909091 -229.624917 
L 270.4 -232.518926 
L 265.890909 -236.422025 
L 261.381818 -241.445705 
L 256.872727 -247.579882 
L 252.363636 -254.627339 
L 247.854545 -262.159078 
L 243.345455 -269.525586 
L 238.836364 -275.949495 
L 234.327273 -280.690445 
L 229.818182 -283.223927 
L 225.309091 -283.355384 
L 220.8 -281.224072 
L 216.290909 -277.21639 
L 211.781818 -271.851589 
L 207.272727 -265.691766 
L 202.763636 -259.292193 
L 198.254545 -253.178659 
L 193.745455 -247.833073 
L 189.236364 -243.675028 
L 184.727273 -241.036337 
L 180.218182 -240.131893 
L 175.709091 -241.036337 
L 171.2 -243.675028 
L 166.690909 -247.833073 
L 162.181818 -253.178659 
L 157.672727 -259.292193 
L 153.163636 -265.691766 
L 148.654545 -271.851589 
L 144.145455 -277.21639 
L 139.636364 -281.224072 
L 135.127273 -283.355384 
L 130.618182 -283.223919 
L 126.109091 -280.690445 
L 121.6 -275.949466 
L 117.090909 -269.525579 
L 112.581818 -262.158978 
L 108.072727 -254.627303 
L 103.563636 -247.579733 
L 99.054545 -241.445645 
L 94.545455 -236.422013 
L 90.036364 -232.518922 
L 85.527273 -229.625014 
L 81.018182 -227.56855 
L 76.509091 -226.164051 
L 72 -225.240592 
z
" id="m837adaafd9" style="stroke:#0000ff;stroke-opacity:0.4;"/>
    </defs>
    <g clip-path="url(#p92d3f5ff17)">
     <use style="fill:#0000ff;fill-opacity:0.4;stroke:#0000ff;stroke-opacity:0.4;" x="0" xlink:href="#m837adaafd9" y="720"/>
    </g>
   </g>
   <g id="matplotlib.axis_5">
    <g id="xtick_9">
     <g id="line2d_39">
      <path clip-path="url(#p92d3f5ff17)" d="M 180.218182 496.173913 
L 180.218182 375.652174 
" style="fill:none;stroke:#b0b0b0;stroke-linecap:square;stroke-width:0.8;"/>
     </g>
     <g id="line2d_40">
      <g>
       <use style="stroke:#000000;stroke-width:0.8;" x="180.218182" xlink:href="#mad3979798d" y="496.173913"/>
      </g>
     </g>
    </g>
    <g id="xtick_10">
     <g id="line2d_41">
      <path clip-path="url(#p92d3f5ff17)" d="M 292.945455 496.173913 
L 292.945455 375.652174 
" style="fill:none;stroke:#b0b0b0;stroke-linecap:square;stroke-width:0.8;"/>
     </g>
     <g id="line2d_42">
      <g>
       <use style="stroke:#000000;stroke-width:0.8;" x="292.945455" xlink:href="#mad3979798d" y="496.173913"/>
      </g>
     </g>
    </g>
    <g id="xtick_11">
     <g id="line2d_43">
      <path clip-path="url(#p92d3f5ff17)" d="M 405.672727 496.173913 
L 405.672727 375.652174 
" style="fill:none;stroke:#b0b0b0;stroke-linecap:square;stroke-width:0.8;"/>
     </g>
     <g id="line2d_44">
      <g>
       <use style="stroke:#000000;stroke-width:0.8;" x="405.672727" xlink:href="#mad3979798d" y="496.173913"/>
      </g>
     </g>
    </g>
    <g id="xtick_12">
     <g id="line2d_45">
      <path clip-path="url(#p92d3f5ff17)" d="M 518.4 496.173913 
L 518.4 375.652174 
" style="fill:none;stroke:#b0b0b0;stroke-linecap:square;stroke-width:0.8;"/>
     </g>
     <g id="line2d_46">
      <g>
       <use style="stroke:#000000;stroke-width:0.8;" x="518.4" xlink:href="#mad3979798d" y="496.173913"/>
      </g>
     </g>
    </g>
   </g>
   <g id="matplotlib.axis_6">
    <g id="ytick_11">
     <g id="line2d_47">
      <path clip-path="url(#p92d3f5ff17)" d="M 72 496.173913 
L 518.4 496.173913 
" style="fill:none;stroke:#b0b0b0;stroke-linecap:square;stroke-width:0.8;"/>
     </g>
     <g id="line2d_48">
      <g>
       <use style="stroke:#000000;stroke-width:0.8;" x="72" xlink:href="#m1b28a685a1" y="496.173913"/>
      </g>
     </g>
     <g id="text_15">
      <!-- 0.00 -->
      <g transform="translate(29.375 502.252663)scale(0.16 -0.16)">
       <use xlink:href="#DejaVuSans-30"/>
       <use x="63.623047" xlink:href="#DejaVuSans-2e"/>
       <use x="95.410156" xlink:href="#DejaVuSans-30"/>
       <use x="159.033203" xlink:href="#DejaVuSans-30"/>
      </g>
     </g>
    </g>
    <g id="ytick_12">
     <g id="line2d_49">
      <path clip-path="url(#p92d3f5ff17)" d="M 72 466.043478 
L 518.4 466.043478 
" style="fill:none;stroke:#b0b0b0;stroke-linecap:square;stroke-width:0.8;"/>
     </g>
     <g id="line2d_50">
      <g>
       <use style="stroke:#000000;stroke-width:0.8;" x="72" xlink:href="#m1b28a685a1" y="466.043478"/>
      </g>
     </g>
     <g id="text_16">
      <!-- 0.25 -->
      <g transform="translate(29.375 472.122228)scale(0.16 -0.16)">
       <use xlink:href="#DejaVuSans-30"/>
       <use x="63.623047" xlink:href="#DejaVuSans-2e"/>
       <use x="95.410156" xlink:href="#DejaVuSans-32"/>
       <use x="159.033203" xlink:href="#DejaVuSans-35"/>
      </g>
     </g>
    </g>
    <g id="ytick_13">
     <g id="line2d_51">
      <path clip-path="url(#p92d3f5ff17)" d="M 72 435.913043 
L 518.4 435.913043 
" style="fill:none;stroke:#b0b0b0;stroke-linecap:square;stroke-width:0.8;"/>
     </g>
     <g id="line2d_52">
      <g>
       <use style="stroke:#000000;stroke-width:0.8;" x="72" xlink:href="#m1b28a685a1" y="435.913043"/>
      </g>
     </g>
     <g id="text_17">
      <!-- 0.50 -->
      <g transform="translate(29.375 441.991793)scale(0.16 -0.16)">
       <use xlink:href="#DejaVuSans-30"/>
       <use x="63.623047" xlink:href="#DejaVuSans-2e"/>
       <use x="95.410156" xlink:href="#DejaVuSans-35"/>
       <use x="159.033203" xlink:href="#DejaVuSans-30"/>
      </g>
     </g>
    </g>
    <g id="ytick_14">
     <g id="line2d_53">
      <path clip-path="url(#p92d3f5ff17)" d="M 72 405.782609 
L 518.4 405.782609 
" style="fill:none;stroke:#b0b0b0;stroke-linecap:square;stroke-width:0.8;"/>
     </g>
     <g id="line2d_54">
      <g>
       <use style="stroke:#000000;stroke-width:0.8;" x="72" xlink:href="#m1b28a685a1" y="405.782609"/>
      </g>
     </g>
     <g id="text_18">
      <!-- 0.75 -->
      <g transform="translate(29.375 411.861359)scale(0.16 -0.16)">
       <use xlink:href="#DejaVuSans-30"/>
       <use x="63.623047" xlink:href="#DejaVuSans-2e"/>
       <use x="95.410156" xlink:href="#DejaVuSans-37"/>
       <use x="159.033203" xlink:href="#DejaVuSans-35"/>
      </g>
     </g>
    </g>
    <g id="ytick_15">
     <g id="line2d_55">
      <path clip-path="url(#p92d3f5ff17)" d="M 72 375.652174 
L 518.4 375.652174 
" style="fill:none;stroke:#b0b0b0;stroke-linecap:square;stroke-width:0.8;"/>
     </g>
     <g id="line2d_56">
      <g>
       <use style="stroke:#000000;stroke-width:0.8;" x="72" xlink:href="#m1b28a685a1" y="375.652174"/>
      </g>
     </g>
     <g id="text_19">
      <!-- 1.00 -->
      <g transform="translate(29.375 381.730924)scale(0.16 -0.16)">
       <use xlink:href="#DejaVuSans-31"/>
       <use x="63.623047" xlink:href="#DejaVuSans-2e"/>
       <use x="95.410156" xlink:href="#DejaVuSans-30"/>
       <use x="159.033203" xlink:href="#DejaVuSans-30"/>
      </g>
     </g>
    </g>
    <g id="text_20">
     <!-- Height -->
     <g transform="translate(22.0475 462.359293)rotate(-90)scale(0.16 -0.16)">
      <use xlink:href="#DejaVuSans-48"/>
      <use x="75.195312" xlink:href="#DejaVuSans-65"/>
      <use x="136.71875" xlink:href="#DejaVuSans-69"/>
      <use x="164.501953" xlink:href="#DejaVuSans-67"/>
      <use x="227.978516" xlink:href="#DejaVuSans-68"/>
      <use x="291.357422" xlink:href="#DejaVuSans-74"/>
     </g>
    </g>
   </g>
   <g id="line2d_57">
    <path clip-path="url(#p92d3f5ff17)" d="M 72 494.759408 
L 76.509091 493.835949 
L 81.018182 492.43145 
L 85.527273 490.374986 
L 90.036364 487.481078 
L 94.545455 483.577987 
L 99.054545 478.554355 
L 103.563636 472.420267 
L 108.072727 465.372697 
L 112.581818 457.841022 
L 117.090909 450.474421 
L 121.6 444.050534 
L 126.109091 439.309555 
L 130.618182 436.776081 
L 135.127273 436.644616 
L 139.636364 438.775928 
L 144.145455 442.78361 
L 148.654545 448.148411 
L 153.163636 454.308234 
L 157.672727 460.707807 
L 162.181818 466.821341 
L 166.690909 472.166927 
L 171.2 476.324972 
L 175.709091 478.963663 
L 180.218182 479.868107 
L 184.727273 478.963663 
L 189.236364 476.324972 
L 193.745455 472.166927 
L 198.254545 466.821341 
L 202.763636 460.707807 
L 207.272727 454.308234 
L 211.781818 448.148411 
L 216.290909 442.78361 
L 220.8 438.775928 
L 225.309091 436.644616 
L 229.818182 436.776073 
L 234.327273 439.309555 
L 238.836364 444.050505 
L 243.345455 450.474414 
L 247.854545 457.840922 
L 252.363636 465.372661 
L 256.872727 472.420118 
L 261.381818 478.554295 
L 265.890909 483.577975 
L 270.4 487.481074 
L 274.909091 490.375083 
L 279.418182 492.431485 
L 283.927273 493.835847 
L 288.436364 494.75937 
L 292.945455 495.344938 
L 297.454545 495.703242 
L 301.963636 495.91496 
L 306.472727 496.035832 
L 310.981818 496.102538 
L 315.490909 496.138139 
L 320 496.156523 
L 324.509091 496.165712 
L 329.018182 496.17016 
L 333.527273 496.172246 
L 338.036364 496.173194 
L 342.545455 496.173612 
L 347.054545 496.17379 
L 351.563636 496.173864 
L 356.072727 496.173894 
L 360.581818 496.173906 
L 365.090909 496.17391 
L 369.6 496.173912 
L 374.109091 496.173913 
L 378.618182 496.173913 
L 383.127273 496.173913 
L 387.636364 496.173913 
L 392.145455 496.173913 
L 396.654545 496.173913 
L 401.163636 496.173913 
L 405.672727 496.173913 
L 410.181818 496.173913 
L 414.690909 496.173913 
L 419.2 496.173913 
L 423.709091 496.173913 
L 428.218182 496.173913 
L 432.727273 496.173913 
L 437.236364 496.173913 
L 441.745455 496.173913 
L 446.254545 496.173912 
L 450.763636 496.17391 
L 455.272727 496.173905 
L 459.781818 496.173879 
L 464.290909 496.173832 
L 468.8 496.173651 
L 473.309091 496.173305 
L 477.818182 496.172297 
L 482.327273 496.170301 
L 486.836364 496.165706 
L 491.345455 496.156505 
L 495.854545 496.138108 
L 500.363636 496.102453 
L 504.872727 496.035869 
L 509.381818 495.915062 
L 513.890909 495.703206 
L 518.4 495.34484 
" style="fill:none;stroke:#0000ff;stroke-linecap:square;stroke-width:1.5;"/>
   </g>
   <g id="patch_13">
    <path d="M 72 496.173913 
L 72 375.652174 
" style="fill:none;stroke:#000000;stroke-linecap:square;stroke-linejoin:miter;stroke-width:0.8;"/>
   </g>
   <g id="patch_14">
    <path d="M 518.4 496.173913 
L 518.4 375.652174 
" style="fill:none;stroke:#000000;stroke-linecap:square;stroke-linejoin:miter;stroke-width:0.8;"/>
   </g>
   <g id="patch_15">
    <path d="M 72 496.173913 
L 518.4 496.173913 
" style="fill:none;stroke:#000000;stroke-linecap:square;stroke-linejoin:miter;stroke-width:0.8;"/>
   </g>
   <g id="patch_16">
    <path d="M 72 375.652174 
L 518.4 375.652174 
" style="fill:none;stroke:#000000;stroke-linecap:square;stroke-linejoin:miter;stroke-width:0.8;"/>
   </g>
   <g id="text_21">
    <!-- Time step  50 -->
    <g transform="translate(229.5765 369.652174)scale(0.192 -0.192)">
     <use xlink:href="#DejaVuSans-54"/>
     <use x="57.958984" xlink:href="#DejaVuSans-69"/>
     <use x="85.742188" xlink:href="#DejaVuSans-6d"/>
     <use x="183.154297" xlink:href="#DejaVuSans-65"/>
     <use x="244.677734" xlink:href="#DejaVuSans-20"/>
     <use x="276.464844" xlink:href="#DejaVuSans-73"/>
     <use x="328.564453" xlink:href="#DejaVuSans-74"/>
     <use x="367.773438" xlink:href="#DejaVuSans-65"/>
     <use x="429.296875" xlink:href="#DejaVuSans-70"/>
     <use x="492.773438" xlink:href="#DejaVuSans-20"/>
     <use x="524.560547" xlink:href="#DejaVuSans-20"/>
     <use x="556.347656" xlink:href="#DejaVuSans-35"/>
     <use x="619.970703" xlink:href="#DejaVuSans-30"/>
    </g>
   </g>
  </g>
  <g id="axes_4">
   <g id="patch_17">
    <path d="M 72 640.8 
L 518.4 640.8 
L 518.4 520.278261 
L 72 520.278261 
z
" style="fill:#ffffff;"/>
   </g>
   <g id="PolyCollection_4">
    <defs>
     <path d="M 72 -91.974287 
L 72 -79.2 
L 76.509091 -79.2 
L 81.018182 -79.2 
L 85.527273 -79.2 
L 90.036364 -79.2 
L 94.545455 -79.2 
L 99.054545 -79.2 
L 103.563636 -79.2 
L 108.072727 -79.2 
L 112.581818 -79.2 
L 117.090909 -79.2 
L 121.6 -79.2 
L 126.109091 -79.2 
L 130.618182 -79.2 
L 135.127273 -79.2 
L 139.636364 -79.2 
L 144.145455 -79.2 
L 148.654545 -79.2 
L 153.163636 -79.2 
L 157.672727 -79.2 
L 162.181818 -79.2 
L 166.690909 -79.2 
L 171.2 -79.2 
L 175.709091 -79.2 
L 180.218182 -79.2 
L 184.727273 -79.2 
L 189.236364 -79.2 
L 193.745455 -79.2 
L 198.254545 -79.2 
L 202.763636 -79.2 
L 207.272727 -79.2 
L 211.781818 -79.2 
L 216.290909 -79.2 
L 220.8 -79.2 
L 225.309091 -79.2 
L 229.818182 -79.2 
L 234.327273 -79.2 
L 238.836364 -79.2 
L 243.345455 -79.2 
L 247.854545 -79.2 
L 252.363636 -79.2 
L 256.872727 -79.2 
L 261.381818 -79.2 
L 265.890909 -79.2 
L 270.4 -79.2 
L 274.909091 -79.2 
L 279.418182 -79.2 
L 283.927273 -79.2 
L 288.436364 -79.2 
L 292.945455 -79.2 
L 297.454545 -79.2 
L 301.963636 -79.2 
L 306.472727 -79.2 
L 310.981818 -79.2 
L 315.490909 -79.2 
L 320 -79.2 
L 324.509091 -79.2 
L 329.018182 -79.2 
L 333.527273 -79.2 
L 338.036364 -79.2 
L 342.545455 -79.2 
L 347.054545 -79.2 
L 351.563636 -79.2 
L 356.072727 -79.2 
L 360.581818 -79.2 
L 365.090909 -79.2 
L 369.6 -79.2 
L 374.109091 -79.2 
L 378.618182 -79.2 
L 383.127273 -79.2 
L 387.636364 -79.2 
L 392.145455 -79.2 
L 396.654545 -79.2 
L 401.163636 -79.2 
L 405.672727 -79.2 
L 410.181818 -79.2 
L 414.690909 -79.2 
L 419.2 -79.2 
L 423.709091 -79.2 
L 428.218182 -79.2 
L 432.727273 -79.2 
L 437.236364 -79.2 
L 441.745455 -79.2 
L 446.254545 -79.2 
L 450.763636 -79.2 
L 455.272727 -79.2 
L 459.781818 -79.2 
L 464.290909 -79.2 
L 468.8 -79.2 
L 473.309091 -79.2 
L 477.818182 -79.2 
L 482.327273 -79.2 
L 486.836364 -79.2 
L 491.345455 -79.2 
L 495.854545 -79.2 
L 500.363636 -79.2 
L 504.872727 -79.2 
L 509.381818 -79.2 
L 513.890909 -79.2 
L 518.4 -79.2 
L 518.4 -88.0338 
L 518.4 -88.0338 
L 513.890909 -85.118794 
L 509.381818 -83.04671 
L 504.872727 -81.626856 
L 500.363636 -80.687 
L 495.854545 -80.085081 
L 491.345455 -79.711795 
L 486.836364 -79.487682 
L 482.327273 -79.357259 
L 477.818182 -79.283518 
L 473.309091 -79.243172 
L 468.8 -79.221684 
L 464.290909 -79.210489 
L 459.781818 -79.205002 
L 455.272727 -79.202211 
L 450.763636 -79.201009 
L 446.254545 -79.200397 
L 441.745455 -79.200175 
L 437.236364 -79.20006 
L 432.727273 -79.200026 
L 428.218182 -79.200008 
L 423.709091 -79.200003 
L 419.2 -79.200001 
L 414.690909 -79.2 
L 410.181818 -79.2 
L 405.672727 -79.2 
L 401.163636 -79.2 
L 396.654545 -79.200001 
L 392.145455 -79.200002 
L 387.636364 -79.200005 
L 383.127273 -79.200013 
L 378.618182 -79.200034 
L 374.109091 -79.200083 
L 369.6 -79.200198 
L 365.090909 -79.200463 
L 360.581818 -79.201053 
L 356.072727 -79.202334 
L 351.563636 -79.205039 
L 347.054545 -79.210591 
L 342.545455 -79.221667 
L 338.036364 -79.243126 
L 333.527273 -79.283493 
L 329.018182 -79.357189 
L 324.509091 -79.487713 
L 320 -79.711881 
L 315.490909 -80.085064 
L 310.981818 -80.68695 
L 306.472727 -81.626862 
L 301.963636 -83.046727 
L 297.454545 -85.118792 
L 292.945455 -88.033796 
L 288.436364 -91.974289 
L 283.927273 -97.068122 
L 279.418182 -103.321269 
L 274.909091 -110.53994 
L 270.4 -118.270214 
L 265.890909 -125.800161 
L 261.381818 -132.265444 
L 256.872727 -136.853763 
L 252.363636 -139.031969 
L 247.854545 -138.6802 
L 243.345455 -136.064628 
L 238.836364 -131.685611 
L 234.327273 -126.10584 
L 229.818182 -119.841649 
L 225.309091 -113.328897 
L 220.8 -106.928102 
L 216.290909 -100.933534 
L 211.781818 -95.573086 
L 207.272727 -91.002547 
L 202.763636 -87.3011 
L 198.254545 -84.472063 
L 193.745455 -82.453224 
L 189.236364 -81.138501 
L 184.727273 -80.410904 
L 180.218182 -80.179726 
L 175.709091 -80.410904 
L 171.2 -81.138501 
L 166.690909 -82.453224 
L 162.181818 -84.472064 
L 157.672727 -87.301095 
L 153.163636 -91.002546 
L 148.654545 -95.573061 
L 144.145455 -100.933537 
L 139.636364 -106.928052 
L 135.127273 -113.328879 
L 130.618182 -119.841534 
L 126.109091 -126.1058 
L 121.6 -131.6855 
L 117.090909 -136.064577 
L 112.581818 -138.680222 
L 108.072727 -139.031969 
L 103.563636 -136.853838 
L 99.054545 -132.265483 
L 94.545455 -125.800075 
L 90.036364 -118.270185 
L 85.527273 -110.539986 
L 81.018182 -103.321289 
L 76.509091 -97.068109 
L 72 -91.974287 
z
" id="m4d7c6ce1f1" style="stroke:#0000ff;stroke-opacity:0.4;"/>
    </defs>
    <g clip-path="url(#pc63bb42f5d)">
     <use style="fill:#0000ff;fill-opacity:0.4;stroke:#0000ff;stroke-opacity:0.4;" x="0" xlink:href="#m4d7c6ce1f1" y="720"/>
    </g>
   </g>
   <g id="matplotlib.axis_7">
    <g id="xtick_13">
     <g id="line2d_58">
      <path clip-path="url(#pc63bb42f5d)" d="M 180.218182 640.8 
L 180.218182 520.278261 
" style="fill:none;stroke:#b0b0b0;stroke-linecap:square;stroke-width:0.8;"/>
     </g>
     <g id="line2d_59">
      <g>
       <use style="stroke:#000000;stroke-width:0.8;" x="180.218182" xlink:href="#mad3979798d" y="640.8"/>
      </g>
     </g>
     <g id="text_22">
      <!-- 25 -->
      <g transform="translate(170.038182 659.9575)scale(0.16 -0.16)">
       <use xlink:href="#DejaVuSans-32"/>
       <use x="63.623047" xlink:href="#DejaVuSans-35"/>
      </g>
     </g>
    </g>
    <g id="xtick_14">
     <g id="line2d_60">
      <path clip-path="url(#pc63bb42f5d)" d="M 292.945455 640.8 
L 292.945455 520.278261 
" style="fill:none;stroke:#b0b0b0;stroke-linecap:square;stroke-width:0.8;"/>
     </g>
     <g id="line2d_61">
      <g>
       <use style="stroke:#000000;stroke-width:0.8;" x="292.945455" xlink:href="#mad3979798d" y="640.8"/>
      </g>
     </g>
     <g id="text_23">
      <!-- 50 -->
      <g transform="translate(282.765455 659.9575)scale(0.16 -0.16)">
       <use xlink:href="#DejaVuSans-35"/>
       <use x="63.623047" xlink:href="#DejaVuSans-30"/>
      </g>
     </g>
    </g>
    <g id="xtick_15">
     <g id="line2d_62">
      <path clip-path="url(#pc63bb42f5d)" d="M 405.672727 640.8 
L 405.672727 520.278261 
" style="fill:none;stroke:#b0b0b0;stroke-linecap:square;stroke-width:0.8;"/>
     </g>
     <g id="line2d_63">
      <g>
       <use style="stroke:#000000;stroke-width:0.8;" x="405.672727" xlink:href="#mad3979798d" y="640.8"/>
      </g>
     </g>
     <g id="text_24">
      <!-- 75 -->
      <g transform="translate(395.492727 659.9575)scale(0.16 -0.16)">
       <use xlink:href="#DejaVuSans-37"/>
       <use x="63.623047" xlink:href="#DejaVuSans-35"/>
      </g>
     </g>
    </g>
    <g id="xtick_16">
     <g id="line2d_64">
      <path clip-path="url(#pc63bb42f5d)" d="M 518.4 640.8 
L 518.4 520.278261 
" style="fill:none;stroke:#b0b0b0;stroke-linecap:square;stroke-width:0.8;"/>
     </g>
     <g id="line2d_65">
      <g>
       <use style="stroke:#000000;stroke-width:0.8;" x="518.4" xlink:href="#mad3979798d" y="640.8"/>
      </g>
     </g>
     <g id="text_25">
      <!-- 100 -->
      <g transform="translate(503.13 659.9575)scale(0.16 -0.16)">
       <use xlink:href="#DejaVuSans-31"/>
       <use x="63.623047" xlink:href="#DejaVuSans-30"/>
       <use x="127.246094" xlink:href="#DejaVuSans-30"/>
      </g>
     </g>
    </g>
    <g id="text_26">
     <!-- Spatial grid index -->
     <g transform="translate(225.01375 679.4425)scale(0.16 -0.16)">
      <defs>
       <path d="M 3425 4513 
L 3425 3897 
Q 3066 4069 2747 4153 
Q 2428 4238 2131 4238 
Q 1616 4238 1336 4038 
Q 1056 3838 1056 3469 
Q 1056 3159 1242 3001 
Q 1428 2844 1947 2747 
L 2328 2669 
Q 3034 2534 3370 2195 
Q 3706 1856 3706 1288 
Q 3706 609 3251 259 
Q 2797 -91 1919 -91 
Q 1588 -91 1214 -16 
Q 841 59 441 206 
L 441 856 
Q 825 641 1194 531 
Q 1563 422 1919 422 
Q 2459 422 2753 634 
Q 3047 847 3047 1241 
Q 3047 1584 2836 1778 
Q 2625 1972 2144 2069 
L 1759 2144 
Q 1053 2284 737 2584 
Q 422 2884 422 3419 
Q 422 4038 858 4394 
Q 1294 4750 2059 4750 
Q 2388 4750 2728 4690 
Q 3069 4631 3425 4513 
z
" id="DejaVuSans-53" transform="scale(0.015625)"/>
       <path d="M 2194 1759 
Q 1497 1759 1228 1600 
Q 959 1441 959 1056 
Q 959 750 1161 570 
Q 1363 391 1709 391 
Q 2188 391 2477 730 
Q 2766 1069 2766 1631 
L 2766 1759 
L 2194 1759 
z
M 3341 1997 
L 3341 0 
L 2766 0 
L 2766 531 
Q 2569 213 2275 61 
Q 1981 -91 1556 -91 
Q 1019 -91 701 211 
Q 384 513 384 1019 
Q 384 1609 779 1909 
Q 1175 2209 1959 2209 
L 2766 2209 
L 2766 2266 
Q 2766 2663 2505 2880 
Q 2244 3097 1772 3097 
Q 1472 3097 1187 3025 
Q 903 2953 641 2809 
L 641 3341 
Q 956 3463 1253 3523 
Q 1550 3584 1831 3584 
Q 2591 3584 2966 3190 
Q 3341 2797 3341 1997 
z
" id="DejaVuSans-61" transform="scale(0.015625)"/>
       <path d="M 603 4863 
L 1178 4863 
L 1178 0 
L 603 0 
L 603 4863 
z
" id="DejaVuSans-6c" transform="scale(0.015625)"/>
       <path d="M 2631 2963 
Q 2534 3019 2420 3045 
Q 2306 3072 2169 3072 
Q 1681 3072 1420 2755 
Q 1159 2438 1159 1844 
L 1159 0 
L 581 0 
L 581 3500 
L 1159 3500 
L 1159 2956 
Q 1341 3275 1631 3429 
Q 1922 3584 2338 3584 
Q 2397 3584 2469 3576 
Q 2541 3569 2628 3553 
L 2631 2963 
z
" id="DejaVuSans-72" transform="scale(0.015625)"/>
       <path d="M 2906 2969 
L 2906 4863 
L 3481 4863 
L 3481 0 
L 2906 0 
L 2906 525 
Q 2725 213 2448 61 
Q 2172 -91 1784 -91 
Q 1150 -91 751 415 
Q 353 922 353 1747 
Q 353 2572 751 3078 
Q 1150 3584 1784 3584 
Q 2172 3584 2448 3432 
Q 2725 3281 2906 2969 
z
M 947 1747 
Q 947 1113 1208 752 
Q 1469 391 1925 391 
Q 2381 391 2643 752 
Q 2906 1113 2906 1747 
Q 2906 2381 2643 2742 
Q 2381 3103 1925 3103 
Q 1469 3103 1208 2742 
Q 947 2381 947 1747 
z
" id="DejaVuSans-64" transform="scale(0.015625)"/>
       <path d="M 3513 2113 
L 3513 0 
L 2938 0 
L 2938 2094 
Q 2938 2591 2744 2837 
Q 2550 3084 2163 3084 
Q 1697 3084 1428 2787 
Q 1159 2491 1159 1978 
L 1159 0 
L 581 0 
L 581 3500 
L 1159 3500 
L 1159 2956 
Q 1366 3272 1645 3428 
Q 1925 3584 2291 3584 
Q 2894 3584 3203 3211 
Q 3513 2838 3513 2113 
z
" id="DejaVuSans-6e" transform="scale(0.015625)"/>
       <path d="M 3513 3500 
L 2247 1797 
L 3578 0 
L 2900 0 
L 1881 1375 
L 863 0 
L 184 0 
L 1544 1831 
L 300 3500 
L 978 3500 
L 1906 2253 
L 2834 3500 
L 3513 3500 
z
" id="DejaVuSans-78" transform="scale(0.015625)"/>
      </defs>
      <use xlink:href="#DejaVuSans-53"/>
      <use x="63.476562" xlink:href="#DejaVuSans-70"/>
      <use x="126.953125" xlink:href="#DejaVuSans-61"/>
      <use x="188.232422" xlink:href="#DejaVuSans-74"/>
      <use x="227.441406" xlink:href="#DejaVuSans-69"/>
      <use x="255.224609" xlink:href="#DejaVuSans-61"/>
      <use x="316.503906" xlink:href="#DejaVuSans-6c"/>
      <use x="344.287109" xlink:href="#DejaVuSans-20"/>
      <use x="376.074219" xlink:href="#DejaVuSans-67"/>
      <use x="439.550781" xlink:href="#DejaVuSans-72"/>
      <use x="480.664062" xlink:href="#DejaVuSans-69"/>
      <use x="508.447266" xlink:href="#DejaVuSans-64"/>
      <use x="571.923828" xlink:href="#DejaVuSans-20"/>
      <use x="603.710938" xlink:href="#DejaVuSans-69"/>
      <use x="631.494141" xlink:href="#DejaVuSans-6e"/>
      <use x="694.873047" xlink:href="#DejaVuSans-64"/>
      <use x="758.349609" xlink:href="#DejaVuSans-65"/>
      <use x="818.123047" xlink:href="#DejaVuSans-78"/>
     </g>
    </g>
   </g>
   <g id="matplotlib.axis_8">
    <g id="ytick_16">
     <g id="line2d_66">
      <path clip-path="url(#pc63bb42f5d)" d="M 72 640.8 
L 518.4 640.8 
" style="fill:none;stroke:#b0b0b0;stroke-linecap:square;stroke-width:0.8;"/>
     </g>
     <g id="line2d_67">
      <g>
       <use style="stroke:#000000;stroke-width:0.8;" x="72" xlink:href="#m1b28a685a1" y="640.8"/>
      </g>
     </g>
     <g id="text_27">
      <!-- 0.00 -->
      <g transform="translate(29.375 646.87875)scale(0.16 -0.16)">
       <use xlink:href="#DejaVuSans-30"/>
       <use x="63.623047" xlink:href="#DejaVuSans-2e"/>
       <use x="95.410156" xlink:href="#DejaVuSans-30"/>
       <use x="159.033203" xlink:href="#DejaVuSans-30"/>
      </g>
     </g>
    </g>
    <g id="ytick_17">
     <g id="line2d_68">
      <path clip-path="url(#pc63bb42f5d)" d="M 72 610.669565 
L 518.4 610.669565 
" style="fill:none;stroke:#b0b0b0;stroke-linecap:square;stroke-width:0.8;"/>
     </g>
     <g id="line2d_69">
      <g>
       <use style="stroke:#000000;stroke-width:0.8;" x="72" xlink:href="#m1b28a685a1" y="610.669565"/>
      </g>
     </g>
     <g id="text_28">
      <!-- 0.25 -->
      <g transform="translate(29.375 616.748315)scale(0.16 -0.16)">
       <use xlink:href="#DejaVuSans-30"/>
       <use x="63.623047" xlink:href="#DejaVuSans-2e"/>
       <use x="95.410156" xlink:href="#DejaVuSans-32"/>
       <use x="159.033203" xlink:href="#DejaVuSans-35"/>
      </g>
     </g>
    </g>
    <g id="ytick_18">
     <g id="line2d_70">
      <path clip-path="url(#pc63bb42f5d)" d="M 72 580.53913 
L 518.4 580.53913 
" style="fill:none;stroke:#b0b0b0;stroke-linecap:square;stroke-width:0.8;"/>
     </g>
     <g id="line2d_71">
      <g>
       <use style="stroke:#000000;stroke-width:0.8;" x="72" xlink:href="#m1b28a685a1" y="580.53913"/>
      </g>
     </g>
     <g id="text_29">
      <!-- 0.50 -->
      <g transform="translate(29.375 586.61788)scale(0.16 -0.16)">
       <use xlink:href="#DejaVuSans-30"/>
       <use x="63.623047" xlink:href="#DejaVuSans-2e"/>
       <use x="95.410156" xlink:href="#DejaVuSans-35"/>
       <use x="159.033203" xlink:href="#DejaVuSans-30"/>
      </g>
     </g>
    </g>
    <g id="ytick_19">
     <g id="line2d_72">
      <path clip-path="url(#pc63bb42f5d)" d="M 72 550.408696 
L 518.4 550.408696 
" style="fill:none;stroke:#b0b0b0;stroke-linecap:square;stroke-width:0.8;"/>
     </g>
     <g id="line2d_73">
      <g>
       <use style="stroke:#000000;stroke-width:0.8;" x="72" xlink:href="#m1b28a685a1" y="550.408696"/>
      </g>
     </g>
     <g id="text_30">
      <!-- 0.75 -->
      <g transform="translate(29.375 556.487446)scale(0.16 -0.16)">
       <use xlink:href="#DejaVuSans-30"/>
       <use x="63.623047" xlink:href="#DejaVuSans-2e"/>
       <use x="95.410156" xlink:href="#DejaVuSans-37"/>
       <use x="159.033203" xlink:href="#DejaVuSans-35"/>
      </g>
     </g>
    </g>
    <g id="ytick_20">
     <g id="line2d_74">
      <path clip-path="url(#pc63bb42f5d)" d="M 72 520.278261 
L 518.4 520.278261 
" style="fill:none;stroke:#b0b0b0;stroke-linecap:square;stroke-width:0.8;"/>
     </g>
     <g id="line2d_75">
      <g>
       <use style="stroke:#000000;stroke-width:0.8;" x="72" xlink:href="#m1b28a685a1" y="520.278261"/>
      </g>
     </g>
     <g id="text_31">
      <!-- 1.00 -->
      <g transform="translate(29.375 526.357011)scale(0.16 -0.16)">
       <use xlink:href="#DejaVuSans-31"/>
       <use x="63.623047" xlink:href="#DejaVuSans-2e"/>
       <use x="95.410156" xlink:href="#DejaVuSans-30"/>
       <use x="159.033203" xlink:href="#DejaVuSans-30"/>
      </g>
     </g>
    </g>
    <g id="text_32">
     <!-- Height -->
     <g transform="translate(22.0475 606.98538)rotate(-90)scale(0.16 -0.16)">
      <use xlink:href="#DejaVuSans-48"/>
      <use x="75.195312" xlink:href="#DejaVuSans-65"/>
      <use x="136.71875" xlink:href="#DejaVuSans-69"/>
      <use x="164.501953" xlink:href="#DejaVuSans-67"/>
      <use x="227.978516" xlink:href="#DejaVuSans-68"/>
      <use x="291.357422" xlink:href="#DejaVuSans-74"/>
     </g>
    </g>
   </g>
   <g id="line2d_76">
    <path clip-path="url(#pc63bb42f5d)" d="M 72 628.025713 
L 76.509091 622.931891 
L 81.018182 616.678711 
L 85.527273 609.460014 
L 90.036364 601.729815 
L 94.545455 594.199925 
L 99.054545 587.734517 
L 103.563636 583.146162 
L 108.072727 580.968031 
L 112.581818 581.319778 
L 117.090909 583.935423 
L 121.6 588.3145 
L 126.109091 593.8942 
L 130.618182 600.158466 
L 135.127273 606.671121 
L 139.636364 613.071948 
L 144.145455 619.066463 
L 148.654545 624.426939 
L 153.163636 628.997454 
L 157.672727 632.698905 
L 162.181818 635.527936 
L 166.690909 637.546776 
L 171.2 638.861499 
L 175.709091 639.589096 
L 180.218182 639.820274 
L 184.727273 639.589096 
L 189.236364 638.861499 
L 193.745455 637.546776 
L 198.254545 635.527937 
L 202.763636 632.6989 
L 207.272727 628.997453 
L 211.781818 624.426914 
L 216.290909 619.066466 
L 220.8 613.071898 
L 225.309091 606.671103 
L 229.818182 600.158351 
L 234.327273 593.89416 
L 238.836364 588.314389 
L 243.345455 583.935372 
L 247.854545 581.3198 
L 252.363636 580.968031 
L 256.872727 583.146237 
L 261.381818 587.734556 
L 265.890909 594.199839 
L 270.4 601.729786 
L 274.909091 609.46006 
L 279.418182 616.678731 
L 283.927273 622.931878 
L 288.436364 628.025711 
L 292.945455 631.966204 
L 297.454545 634.881208 
L 301.963636 636.953273 
L 306.472727 638.373138 
L 310.981818 639.31305 
L 315.490909 639.914936 
L 320 640.288119 
L 324.509091 640.512287 
L 329.018182 640.642811 
L 333.527273 640.716507 
L 338.036364 640.756874 
L 342.545455 640.778333 
L 347.054545 640.789409 
L 351.563636 640.794961 
L 356.072727 640.797666 
L 360.581818 640.798947 
L 365.090909 640.799537 
L 369.6 640.799802 
L 374.109091 640.799917 
L 378.618182 640.799966 
L 383.127273 640.799987 
L 387.636364 640.799995 
L 392.145455 640.799998 
L 396.654545 640.799999 
L 401.163636 640.8 
L 405.672727 640.8 
L 410.181818 640.8 
L 414.690909 640.8 
L 419.2 640.799999 
L 423.709091 640.799997 
L 428.218182 640.799992 
L 432.727273 640.799974 
L 437.236364 640.79994 
L 441.745455 640.799825 
L 446.254545 640.799603 
L 450.763636 640.798991 
L 455.272727 640.797789 
L 459.781818 640.794998 
L 464.290909 640.789511 
L 468.8 640.778316 
L 473.309091 640.756828 
L 477.818182 640.716482 
L 482.327273 640.642741 
L 486.836364 640.512318 
L 491.345455 640.288205 
L 495.854545 639.914919 
L 500.363636 639.313 
L 504.872727 638.373144 
L 509.381818 636.95329 
L 513.890909 634.881206 
L 518.4 631.9662 
" style="fill:none;stroke:#0000ff;stroke-linecap:square;stroke-width:1.5;"/>
   </g>
   <g id="patch_18">
    <path d="M 72 640.8 
L 72 520.278261 
" style="fill:none;stroke:#000000;stroke-linecap:square;stroke-linejoin:miter;stroke-width:0.8;"/>
   </g>
   <g id="patch_19">
    <path d="M 518.4 640.8 
L 518.4 520.278261 
" style="fill:none;stroke:#000000;stroke-linecap:square;stroke-linejoin:miter;stroke-width:0.8;"/>
   </g>
   <g id="patch_20">
    <path d="M 72 640.8 
L 518.4 640.8 
" style="fill:none;stroke:#000000;stroke-linecap:square;stroke-linejoin:miter;stroke-width:0.8;"/>
   </g>
   <g id="patch_21">
    <path d="M 72 520.278261 
L 518.4 520.278261 
" style="fill:none;stroke:#000000;stroke-linecap:square;stroke-linejoin:miter;stroke-width:0.8;"/>
   </g>
   <g id="text_33">
    <!-- Time step  75 -->
    <g transform="translate(229.5765 514.278261)scale(0.192 -0.192)">
     <use xlink:href="#DejaVuSans-54"/>
     <use x="57.958984" xlink:href="#DejaVuSans-69"/>
     <use x="85.742188" xlink:href="#DejaVuSans-6d"/>
     <use x="183.154297" xlink:href="#DejaVuSans-65"/>
     <use x="244.677734" xlink:href="#DejaVuSans-20"/>
     <use x="276.464844" xlink:href="#DejaVuSans-73"/>
     <use x="328.564453" xlink:href="#DejaVuSans-74"/>
     <use x="367.773438" xlink:href="#DejaVuSans-65"/>
     <use x="429.296875" xlink:href="#DejaVuSans-70"/>
     <use x="492.773438" xlink:href="#DejaVuSans-20"/>
     <use x="524.560547" xlink:href="#DejaVuSans-20"/>
     <use x="556.347656" xlink:href="#DejaVuSans-37"/>
     <use x="619.970703" xlink:href="#DejaVuSans-35"/>
    </g>
   </g>
  </g>
 </g>
 <defs>
  <clipPath id="pead3b7d395">
   <rect height="120.521739" width="446.4" x="72" y="86.4"/>
  </clipPath>
  <clipPath id="p0d32746d4c">
   <rect height="120.521739" width="446.4" x="72" y="231.026087"/>
  </clipPath>
  <clipPath id="p92d3f5ff17">
   <rect height="120.521739" width="446.4" x="72" y="375.652174"/>
  </clipPath>
  <clipPath id="pc63bb42f5d">
   <rect height="120.521739" width="446.4" x="72" y="520.278261"/>
  </clipPath>
 </defs>
</svg>
